<?xml version="1.0" encoding="UTF-8" standalone="no"?>
<!-- Created with Inkscape (http://www.inkscape.org/) -->

<svg
   xmlns:dc="http://purl.org/dc/elements/1.1/"
   xmlns:cc="http://creativecommons.org/ns#"
   xmlns:rdf="http://www.w3.org/1999/02/22-rdf-syntax-ns#"
   xmlns:svg="http://www.w3.org/2000/svg"
   xmlns="http://www.w3.org/2000/svg"
   xmlns:sodipodi="http://sodipodi.sourceforge.net/DTD/sodipodi-0.dtd"
   xmlns:inkscape="http://www.inkscape.org/namespaces/inkscape"
   width="113.00954"
   height="128.91945"
   id="svg2"
   sodipodi:version="0.32"
   inkscape:version="0.47 r22583"
   sodipodi:docname="DEL ALVARO OBREGON.svg"
   inkscape:output_extension="org.inkscape.output.svg.inkscape"
   version="1.0">
  <defs
     id="defs4">
    <inkscape:perspective
       sodipodi:type="inkscape:persp3d"
       inkscape:vp_x="0 : 526.18109 : 1"
       inkscape:vp_y="0 : 1000 : 0"
       inkscape:vp_z="744.09448 : 526.18109 : 1"
       inkscape:persp3d-origin="372.04724 : 350.78739 : 1"
       id="perspective10" />
    <inkscape:perspective
       id="perspective2447"
       inkscape:persp3d-origin="372.04724 : 350.78739 : 1"
       inkscape:vp_z="744.09448 : 526.18109 : 1"
       inkscape:vp_y="0 : 1000 : 0"
       inkscape:vp_x="0 : 526.18109 : 1"
       sodipodi:type="inkscape:persp3d" />
  </defs>
  <sodipodi:namedview
     id="base"
     pagecolor="#ffffff"
     bordercolor="#666666"
     borderopacity="1.0"
     inkscape:pageopacity="0.0"
     inkscape:pageshadow="2"
     inkscape:zoom="1.4"
     inkscape:cx="103.22787"
     inkscape:cy="93.120176"
     inkscape:document-units="px"
     inkscape:current-layer="layer1"
     showgrid="false"
     inkscape:window-width="1440"
     inkscape:window-height="848"
     inkscape:window-x="0"
     inkscape:window-y="1"
     inkscape:window-maximized="1" />
  <metadata
     id="metadata7">
    <rdf:RDF>
      <cc:Work
         rdf:about="">
        <dc:format>image/svg+xml</dc:format>
        <dc:type
           rdf:resource="http://purl.org/dc/dcmitype/StillImage" />
      </cc:Work>
    </rdf:RDF>
  </metadata>
  <g
     inkscape:label="Capa 1"
     inkscape:groupmode="layer"
     id="layer1"
     transform="translate(-51.202745,-241.14719)"
     sodipodi:insensitive="true">
    <path
       sodipodi:type="arc"
       style="fill:#2148a5;fill-opacity:1;stroke:#000000;stroke-width:0.5;stroke-linecap:butt;stroke-linejoin:miter;stroke-miterlimit:0;stroke-opacity:1;stroke-dasharray:none"
       id="path2453"
       sodipodi:cx="350"
       sodipodi:cy="512.7193"
       sodipodi:rx="10.714286"
       sodipodi:ry="10.714286"
       d="m 360.71429,512.7193 a 10.714286,10.714286 0 1 1 -21.42858,0 10.714286,10.714286 0 1 1 21.42858,0 z" />
    <g
       id="g3340"
       transform="translate(-164.65486,-236.3757)">
      <rect
         y="477.58539"
         x="216.17264"
         height="128.79445"
         width="112.63201"
         id="rect3328"
         style="fill:#f1f4f4;fill-opacity:1;stroke:#15120d;stroke-width:0.1;stroke-linecap:butt;stroke-linejoin:miter;stroke-miterlimit:4;stroke-opacity:1;stroke-dasharray:none" />
      <rect
         y="557.63232"
         x="215.9201"
         height="48.711842"
         width="112.63201"
         id="rect3330"
         style="fill:#e48919;fill-opacity:1;stroke:#bf3065;stroke-width:0.1;stroke-linecap:butt;stroke-linejoin:miter;stroke-miterlimit:4;stroke-opacity:1;stroke-dasharray:none" />
      <path
         transform="matrix(1.675,0,0,1.7333334,-405.16002,-363.86147)"
         d="m 425.00001,508.43362 a 21.428572,21.428572 0 1 1 -42.85714,0 21.428572,21.428572 0 1 1 42.85714,0 z"
         sodipodi:ry="21.428572"
         sodipodi:rx="21.428572"
         sodipodi:cy="508.43362"
         sodipodi:cx="403.57144"
         id="path2455"
         style="fill:#e48919;fill-opacity:1;stroke:#000000;stroke-width:0.2934415;stroke-linecap:butt;stroke-linejoin:miter;stroke-miterlimit:0;stroke-opacity:1;stroke-dasharray:none"
         sodipodi:type="arc" />
    </g>
    <path
       style="fill:#d98615;fill-opacity:1;fill-rule:evenodd;stroke:#d98d1f;stroke-width:0.99921262;stroke-linecap:butt;stroke-linejoin:miter;stroke-miterlimit:4;stroke-opacity:1;stroke-dasharray:none"
       d="m 81.416565,304.0222 51.607145,0.17857"
       id="path3263" />
    <g
       id="g3267"
       style="fill:#f2ece3;fill-opacity:1;stroke-width:0.99921262;stroke-miterlimit:4;stroke-dasharray:none"
       transform="translate(-164.65486,-236.3757)">
      <path
         sodipodi:nodetypes="ccccc"
         id="path2459"
         d="m 270.35714,539.68361 0,-24.10714 3.03572,0 0,24.1964 -3.03571,3e-5"
         style="fill:#f2ece3;fill-opacity:1;fill-rule:evenodd;stroke:#000000;stroke-width:0.99921262;stroke-linecap:butt;stroke-linejoin:miter;stroke-miterlimit:4;stroke-opacity:1;stroke-dasharray:none" />
      <rect
         y="498.74612"
         x="271.11606"
         height="4.4642859"
         width="1.7857143"
         id="rect2475"
         style="fill:#f2ece3;fill-opacity:1;stroke:#000000;stroke-width:0.99921262;stroke-linecap:butt;stroke-linejoin:miter;stroke-miterlimit:4;stroke-opacity:1;stroke-dasharray:none" />
      <path
         sodipodi:nodetypes="cscsscssccccsssccssccsc"
         id="path2463"
         d="m 271.59375,502.34375 c -0.98571,0 -1.78126,0.72314 -1.78125,1.625 0,0.31373 -0.33295,-0.0748 -0.25446,0.93304 0,0 -0.72858,-1.8393 -1.71429,-1.83929 -0.98571,0 -1.78126,0.72314 -1.78125,1.625 0,0.69807 0.17001,1.25278 0.48661,1.75446 0,0 -0.92937,-1.44195 -1.89286,-1.44196 -0.98571,0 -1.81251,0.75438 -1.8125,1.65625 0,0.70761 0.49922,1.30432 1.1875,1.53125 l 3.8125,3.8125 8.0625,0 2.125,-3.58036 c -0.1628,-0.039 0.12547,-0.32589 0.1875,-0.32589 0.98571,0 1.78125,-0.72315 1.78125,-1.625 0,-0.90186 -0.79554,-1.62501 -1.78125,-1.625 -0.71255,0 -1.33858,0.38485 -1.625,0.9375 L 276.5,505.75 c 0.27657,-0.28776 0.46875,-0.64948 0.46875,-1.0625 0,-0.90186 -0.79552,-1.62499 -1.78125,-1.625 -0.95239,0 -1.72966,0.67162 -1.78125,1.53125 l -0.125,-0.0625 c 0.0714,-0.17653 0.125,-0.36334 0.125,-0.5625 0,-0.90186 -0.82679,-1.62501 -1.8125,-1.625 z"
         style="fill:#f2ece3;fill-opacity:1;stroke:#000000;stroke-width:0.99921262;stroke-linecap:butt;stroke-linejoin:miter;stroke-miterlimit:4;stroke-opacity:1;stroke-dasharray:none" />
      <path
         transform="matrix(1.2222222,0,0,1.2222222,-154.02778,-172.56858)"
         d="m 351.60714,560.39789 a 3.2142856,3.2142856 0 1 1 -6.42857,0 3.2142856,3.2142856 0 1 1 6.42857,0 z"
         sodipodi:ry="3.2142856"
         sodipodi:rx="3.2142856"
         sodipodi:cy="560.39789"
         sodipodi:cx="348.39285"
         id="path2461"
         style="fill:#f2ece3;fill-opacity:1;stroke:#000000;stroke-width:0.81753761;stroke-linecap:butt;stroke-linejoin:miter;stroke-miterlimit:4;stroke-opacity:1;stroke-dasharray:none"
         sodipodi:type="arc" />
      <path
         id="path3251"
         d="m 270.26786,520.48718 -1.51786,-2.41071 -3.57143,-0.17857 1.51786,1.25 0.80357,1.16071 0,4.28571 1.16071,1.07143 1.60715,0 0,-5.71428"
         style="fill:#f2ece3;fill-opacity:1;fill-rule:evenodd;stroke:#000000;stroke-width:0.99921262;stroke-linecap:butt;stroke-linejoin:miter;stroke-miterlimit:4;stroke-opacity:1;stroke-dasharray:none" />
      <path
         id="path3253"
         d="m 270.3125,530.62111 -1.51786,-2.41071 -3.57143,-0.17857 1.51786,1.25 0.80357,1.16071 0,4.28571 1.16071,1.07143 1.60715,0 0,-5.71428"
         style="fill:#f2ece3;fill-opacity:1;fill-rule:evenodd;stroke:#000000;stroke-width:0.99921262;stroke-linecap:butt;stroke-linejoin:miter;stroke-miterlimit:4;stroke-opacity:1;stroke-dasharray:none" />
      <path
         id="path3257"
         d="m 273.45537,530.6211 1.53383,-2.41071 3.60902,-0.17857 -1.53384,1.25 -0.81202,1.16071 0,4.28571 -1.17293,1.07143 -1.62406,0 0,-5.71428"
         style="fill:#f2ece3;fill-opacity:1;fill-rule:evenodd;stroke:#000000;stroke-width:0.99921262;stroke-linecap:butt;stroke-linejoin:miter;stroke-miterlimit:4;stroke-opacity:1;stroke-dasharray:none" />
      <path
         id="path3259"
         d="m 273.41072,519.90682 1.53383,-2.41071 3.60902,-0.17857 -1.53384,1.25 -0.81202,1.16071 0,4.28571 -1.17293,1.07143 -1.62406,0 0,-5.71428"
         style="fill:#f2ece3;fill-opacity:1;fill-rule:evenodd;stroke:#000000;stroke-width:0.99921262;stroke-linecap:butt;stroke-linejoin:miter;stroke-miterlimit:4;stroke-opacity:1;stroke-dasharray:none" />
      <path
         transform="matrix(0.723808,0,0,0.723808,19.720771,90.996765)"
         d="m 351.60714,560.39789 a 3.2142856,3.2142856 0 1 1 -6.42857,0 3.2142856,3.2142856 0 1 1 6.42857,0 z"
         sodipodi:ry="3.2142856"
         sodipodi:rx="3.2142856"
         sodipodi:cy="560.39789"
         sodipodi:cx="348.39285"
         id="path3265"
         style="fill:#f2ece3;fill-opacity:1;stroke:#000000;stroke-width:1.380494;stroke-linecap:butt;stroke-linejoin:miter;stroke-miterlimit:4;stroke-opacity:1;stroke-dasharray:none"
         sodipodi:type="arc" />
    </g>
    <g
       id="g3278"
       transform="matrix(0.9919144,0.1269084,-0.1269084,0.9919144,-79.836752,-266.30475)"
       inkscape:transform-center-y="-22.473987"
       inkscape:transform-center-x="-4.0525156"
       style="fill:#f2ece3;fill-opacity:1;stroke-width:0.99921262;stroke-miterlimit:4;stroke-dasharray:none">
      <path
         sodipodi:nodetypes="ccccc"
         id="path3280"
         d="m 270.35714,539.68361 0,-24.10714 3.03572,0 0,24.1964 -3.03571,3e-5"
         style="fill:#f2ece3;fill-opacity:1;fill-rule:evenodd;stroke:#000000;stroke-width:0.99921262;stroke-linecap:butt;stroke-linejoin:miter;stroke-miterlimit:4;stroke-opacity:1;stroke-dasharray:none" />
      <rect
         y="498.74612"
         x="271.11606"
         height="4.4642859"
         width="1.7857143"
         id="rect3282"
         style="fill:#f2ece3;fill-opacity:1;stroke:#000000;stroke-width:0.99921262;stroke-linecap:butt;stroke-linejoin:miter;stroke-miterlimit:4;stroke-opacity:1;stroke-dasharray:none" />
      <path
         sodipodi:nodetypes="cscsscssccccsssccssccsc"
         id="path3284"
         d="m 271.59375,502.34375 c -0.98571,0 -1.78126,0.72314 -1.78125,1.625 0,0.31373 -0.33295,-0.0748 -0.25446,0.93304 0,0 -0.72858,-1.8393 -1.71429,-1.83929 -0.98571,0 -1.78126,0.72314 -1.78125,1.625 0,0.69807 0.17001,1.25278 0.48661,1.75446 0,0 -0.92937,-1.44195 -1.89286,-1.44196 -0.98571,0 -1.81251,0.75438 -1.8125,1.65625 0,0.70761 0.49922,1.30432 1.1875,1.53125 l 3.8125,3.8125 8.0625,0 2.125,-3.58036 c -0.1628,-0.039 0.12547,-0.32589 0.1875,-0.32589 0.98571,0 1.78125,-0.72315 1.78125,-1.625 0,-0.90186 -0.79554,-1.62501 -1.78125,-1.625 -0.71255,0 -1.33858,0.38485 -1.625,0.9375 L 276.5,505.75 c 0.27657,-0.28776 0.46875,-0.64948 0.46875,-1.0625 0,-0.90186 -0.79552,-1.62499 -1.78125,-1.625 -0.95239,0 -1.72966,0.67162 -1.78125,1.53125 l -0.125,-0.0625 c 0.0714,-0.17653 0.125,-0.36334 0.125,-0.5625 0,-0.90186 -0.82679,-1.62501 -1.8125,-1.625 z"
         style="fill:#f2ece3;fill-opacity:1;stroke:#000000;stroke-width:0.99921262;stroke-linecap:butt;stroke-linejoin:miter;stroke-miterlimit:4;stroke-opacity:1;stroke-dasharray:none" />
      <path
         transform="matrix(1.2222222,0,0,1.2222222,-154.02778,-172.56858)"
         d="m 351.60714,560.39789 a 3.2142856,3.2142856 0 1 1 -6.42857,0 3.2142856,3.2142856 0 1 1 6.42857,0 z"
         sodipodi:ry="3.2142856"
         sodipodi:rx="3.2142856"
         sodipodi:cy="560.39789"
         sodipodi:cx="348.39285"
         id="path3286"
         style="fill:#f2ece3;fill-opacity:1;stroke:#000000;stroke-width:0.81753761;stroke-linecap:butt;stroke-linejoin:miter;stroke-miterlimit:4;stroke-opacity:1;stroke-dasharray:none"
         sodipodi:type="arc" />
      <path
         id="path3288"
         d="m 270.26786,520.48718 -1.51786,-2.41071 -3.57143,-0.17857 1.51786,1.25 0.80357,1.16071 0,4.28571 1.16071,1.07143 1.60715,0 0,-5.71428"
         style="fill:#f2ece3;fill-opacity:1;fill-rule:evenodd;stroke:#000000;stroke-width:0.99921262;stroke-linecap:butt;stroke-linejoin:miter;stroke-miterlimit:4;stroke-opacity:1;stroke-dasharray:none" />
      <path
         id="path3290"
         d="m 270.3125,530.62111 -1.51786,-2.41071 -3.57143,-0.17857 1.51786,1.25 0.80357,1.16071 0,4.28571 1.16071,1.07143 1.60715,0 0,-5.71428"
         style="fill:#f2ece3;fill-opacity:1;fill-rule:evenodd;stroke:#000000;stroke-width:0.99921262;stroke-linecap:butt;stroke-linejoin:miter;stroke-miterlimit:4;stroke-opacity:1;stroke-dasharray:none" />
      <path
         id="path3292"
         d="m 273.45537,530.6211 1.53383,-2.41071 3.60902,-0.17857 -1.53384,1.25 -0.81202,1.16071 0,4.28571 -1.17293,1.07143 -1.62406,0 0,-5.71428"
         style="fill:#f2ece3;fill-opacity:1;fill-rule:evenodd;stroke:#000000;stroke-width:0.99921262;stroke-linecap:butt;stroke-linejoin:miter;stroke-miterlimit:4;stroke-opacity:1;stroke-dasharray:none" />
      <path
         id="path3294"
         d="m 273.41072,519.90682 1.53383,-2.41071 3.60902,-0.17857 -1.53384,1.25 -0.81202,1.16071 0,4.28571 -1.17293,1.07143 -1.62406,0 0,-5.71428"
         style="fill:#f2ece3;fill-opacity:1;fill-rule:evenodd;stroke:#000000;stroke-width:0.99921262;stroke-linecap:butt;stroke-linejoin:miter;stroke-miterlimit:4;stroke-opacity:1;stroke-dasharray:none" />
      <path
         transform="matrix(0.723808,0,0,0.723808,19.720771,90.996765)"
         d="m 351.60714,560.39789 a 3.2142856,3.2142856 0 1 1 -6.42857,0 3.2142856,3.2142856 0 1 1 6.42857,0 z"
         sodipodi:ry="3.2142856"
         sodipodi:rx="3.2142856"
         sodipodi:cy="560.39789"
         sodipodi:cx="348.39285"
         id="path3296"
         style="fill:#f2ece3;fill-opacity:1;stroke:#000000;stroke-width:1.380494;stroke-linecap:butt;stroke-linejoin:miter;stroke-miterlimit:4;stroke-opacity:1;stroke-dasharray:none"
         sodipodi:type="arc" />
    </g>
    <g
       id="g3298"
       transform="matrix(0.9953294,-0.09653669,0.09653669,0.9953294,-231.03011,-206.96467)"
       inkscape:transform-center-y="-22.673827"
       inkscape:transform-center-x="2.8723058"
       style="fill:#f2ece3;fill-opacity:1;stroke-width:0.99921262;stroke-miterlimit:4;stroke-dasharray:none">
      <path
         sodipodi:nodetypes="ccccc"
         id="path3300"
         d="m 270.35714,539.68361 0,-24.10714 3.03572,0 0,24.1964 -3.03571,3e-5"
         style="fill:#f2ece3;fill-opacity:1;fill-rule:evenodd;stroke:#000000;stroke-width:0.99921262;stroke-linecap:butt;stroke-linejoin:miter;stroke-miterlimit:4;stroke-opacity:1;stroke-dasharray:none" />
      <rect
         y="498.74612"
         x="271.11606"
         height="4.4642859"
         width="1.7857143"
         id="rect3302"
         style="fill:#f2ece3;fill-opacity:1;stroke:#000000;stroke-width:0.99921262;stroke-linecap:butt;stroke-linejoin:miter;stroke-miterlimit:4;stroke-opacity:1;stroke-dasharray:none" />
      <path
         sodipodi:nodetypes="cscsscssccccsssccssccsc"
         id="path3304"
         d="m 271.59375,502.34375 c -0.98571,0 -1.78126,0.72314 -1.78125,1.625 0,0.31373 -0.33295,-0.0748 -0.25446,0.93304 0,0 -0.72858,-1.8393 -1.71429,-1.83929 -0.98571,0 -1.78126,0.72314 -1.78125,1.625 0,0.69807 0.17001,1.25278 0.48661,1.75446 0,0 -0.92937,-1.44195 -1.89286,-1.44196 -0.98571,0 -1.81251,0.75438 -1.8125,1.65625 0,0.70761 0.49922,1.30432 1.1875,1.53125 l 3.8125,3.8125 8.0625,0 2.125,-3.58036 c -0.1628,-0.039 0.12547,-0.32589 0.1875,-0.32589 0.98571,0 1.78125,-0.72315 1.78125,-1.625 0,-0.90186 -0.79554,-1.62501 -1.78125,-1.625 -0.71255,0 -1.33858,0.38485 -1.625,0.9375 L 276.5,505.75 c 0.27657,-0.28776 0.46875,-0.64948 0.46875,-1.0625 0,-0.90186 -0.79552,-1.62499 -1.78125,-1.625 -0.95239,0 -1.72966,0.67162 -1.78125,1.53125 l -0.125,-0.0625 c 0.0714,-0.17653 0.125,-0.36334 0.125,-0.5625 0,-0.90186 -0.82679,-1.62501 -1.8125,-1.625 z"
         style="fill:#f2ece3;fill-opacity:1;stroke:#000000;stroke-width:0.99921262;stroke-linecap:butt;stroke-linejoin:miter;stroke-miterlimit:4;stroke-opacity:1;stroke-dasharray:none" />
      <path
         transform="matrix(1.2222222,0,0,1.2222222,-154.02778,-172.56858)"
         d="m 351.60714,560.39789 c 0,1.7752 -1.43909,3.21428 -3.21429,3.21428 -1.7752,0 -3.21428,-1.43908 -3.21428,-3.21428 0,-1.7752 1.43908,-3.21429 3.21428,-3.21429 1.7752,0 3.21429,1.43909 3.21429,3.21429 z"
         sodipodi:ry="3.2142856"
         sodipodi:rx="3.2142856"
         sodipodi:cy="560.39789"
         sodipodi:cx="348.39285"
         id="path3306"
         style="fill:#f2ece3;fill-opacity:1;stroke:#000000;stroke-width:0.81753761;stroke-linecap:butt;stroke-linejoin:miter;stroke-miterlimit:4;stroke-opacity:1;stroke-dasharray:none"
         sodipodi:type="arc" />
      <path
         id="path3308"
         d="m 270.26786,520.48718 -1.51786,-2.41071 -3.57143,-0.17857 1.51786,1.25 0.80357,1.16071 0,4.28571 1.16071,1.07143 1.60715,0 0,-5.71428"
         style="fill:#f2ece3;fill-opacity:1;fill-rule:evenodd;stroke:#000000;stroke-width:0.99921262;stroke-linecap:butt;stroke-linejoin:miter;stroke-miterlimit:4;stroke-opacity:1;stroke-dasharray:none" />
      <path
         id="path3310"
         d="m 270.3125,530.62111 -1.51786,-2.41071 -3.57143,-0.17857 1.51786,1.25 0.80357,1.16071 0,4.28571 1.16071,1.07143 1.60715,0 0,-5.71428"
         style="fill:#f2ece3;fill-opacity:1;fill-rule:evenodd;stroke:#000000;stroke-width:0.99921262;stroke-linecap:butt;stroke-linejoin:miter;stroke-miterlimit:4;stroke-opacity:1;stroke-dasharray:none" />
      <path
         id="path3312"
         d="m 273.45537,530.6211 1.53383,-2.41071 3.60902,-0.17857 -1.53384,1.25 -0.81202,1.16071 0,4.28571 -1.17293,1.07143 -1.62406,0 0,-5.71428"
         style="fill:#f2ece3;fill-opacity:1;fill-rule:evenodd;stroke:#000000;stroke-width:0.99921262;stroke-linecap:butt;stroke-linejoin:miter;stroke-miterlimit:4;stroke-opacity:1;stroke-dasharray:none" />
      <path
         id="path3314"
         d="m 273.41072,519.90682 1.53383,-2.41071 3.60902,-0.17857 -1.53384,1.25 -0.81202,1.16071 0,4.28571 -1.17293,1.07143 -1.62406,0 0,-5.71428"
         style="fill:#f2ece3;fill-opacity:1;fill-rule:evenodd;stroke:#000000;stroke-width:0.99921262;stroke-linecap:butt;stroke-linejoin:miter;stroke-miterlimit:4;stroke-opacity:1;stroke-dasharray:none" />
      <path
         transform="matrix(0.723808,0,0,0.723808,19.720771,90.996765)"
         d="m 351.60714,560.39789 c 0,1.7752 -1.43909,3.21428 -3.21429,3.21428 -1.7752,0 -3.21428,-1.43908 -3.21428,-3.21428 0,-1.7752 1.43908,-3.21429 3.21428,-3.21429 1.7752,0 3.21429,1.43909 3.21429,3.21429 z"
         sodipodi:ry="3.2142856"
         sodipodi:rx="3.2142856"
         sodipodi:cy="560.39789"
         sodipodi:cx="348.39285"
         id="path3316"
         style="fill:#f2ece3;fill-opacity:1;stroke:#000000;stroke-width:1.380494;stroke-linecap:butt;stroke-linejoin:miter;stroke-miterlimit:4;stroke-opacity:1;stroke-dasharray:none"
         sodipodi:type="arc" />
    </g>
    <path
       style="font-size:11.50473118px;font-style:normal;font-weight:normal;line-height:125%;fill:#000000;fill-opacity:1;stroke:none;font-family:Bitstream Vera Sans"
       d="m 92.9375,82.3125 -0.78125,0.84375 1.03125,0 1.5625,-0.84375 -1.8125,0 z m -41.125,1 c -0.803217,4e-6 -1.460703,0.08251 -2,0.21875 -0.707595,0.177305 -1.257818,0.417796 -1.625,0.75 -0.367184,0.33221 -0.562501,0.728863 -0.5625,1.15625 -10e-7,0.393798 0.171064,0.757812 0.5,1.09375 0.328934,0.334074 0.814703,0.568966 1.46875,0.75 0.654042,0.179168 1.432786,0.28125 2.3125,0.28125 0.692288,0 1.389324,-0.06059 2.0625,-0.1875 0.676987,-0.128777 1.175533,-0.26953 1.53125,-0.4375 l 0,-1.65625 -3.65625,0 0,0.6875 1.9375,0 0,0.53125 c -0.25627,0.09705 -0.546723,0.180947 -0.90625,0.25 -0.355714,0.06719 -0.706796,0.09375 -1.0625,0.09375 -0.719071,10e-7 -1.306324,-0.101126 -1.75,-0.34375 -0.443682,-0.244488 -0.687502,-0.606636 -0.6875,-1.09375 -2e-6,-0.45165 0.220217,-0.801688 0.65625,-1.03125 0.439852,-0.229555 1.03923,-0.343747 1.78125,-0.34375 0.489572,3e-6 0.893634,0.03867 1.21875,0.15625 0.328929,0.115716 0.568924,0.298439 0.6875,0.5 l 1.6875,-0.15625 C 55.23795,84.154254 54.839015,83.837765 54.25,83.625 53.664795,83.410376 52.856672,83.312504 51.8125,83.3125 z m 23.03125,0 c -1.17805,4e-6 -2.12086,0.183639 -2.84375,0.5625 -0.722893,0.377002 -1.093751,0.910675 -1.09375,1.59375 -10e-7,0.645752 0.343432,1.157985 1.0625,1.53125 0.719065,0.3714 1.664398,0.5625 2.78125,0.5625 0.902654,0 1.633546,-0.09601 2.21875,-0.3125 0.589016,-0.21836 0.997554,-0.55208 1.25,-1 l -1.625,-0.28125 c -0.141525,0.300481 -0.393646,0.547526 -0.71875,0.6875 -0.325115,0.139976 -0.704925,0.187501 -1.15625,0.1875 -0.611976,10e-7 -1.117521,-0.09227 -1.5,-0.3125 -0.382485,-0.220226 -0.562502,-0.606158 -0.5625,-1.125 -2e-6,-0.488976 0.17619,-0.844136 0.5625,-1.0625 0.390129,-0.218357 0.9078,-0.312497 1.53125,-0.3125 0.451325,3e-6 0.842609,0.06433 1.15625,0.1875 0.317455,0.123181 0.525548,0.287241 0.625,0.5 l 1.6875,-0.1875 c -0.191249,-0.328471 -0.492525,-0.605811 -0.875,-0.78125 -0.642577,-0.296743 -1.471127,-0.437496 -2.5,-0.4375 z m 18.34375,0 c -0.684648,4e-6 -1.288502,0.04801 -1.8125,0.15625 -0.393959,0.08026 -0.760992,0.2089 -1.09375,0.375 -0.328936,0.166107 -0.59001,0.353474 -0.78125,0.5625 -0.256264,0.283685 -0.375001,0.644444 -0.375,1.0625 -10e-7,0.653217 0.355558,1.157985 1.09375,1.53125 0.738189,0.3714 1.749279,0.5625 3,0.5625 1.235413,0 2.230552,-0.189234 2.96875,-0.5625 0.738183,-0.375132 1.093741,-0.899951 1.09375,-1.5625 -9e-6,-0.668144 -0.379167,-1.187364 -1.125,-1.5625 -0.742023,-0.375129 -1.729512,-0.562496 -2.96875,-0.5625 z m -89.46875,0.0625 0,4.125 3.1875,0 c 0.6272668,0 1.1564119,-0.03589 1.53125,-0.09375 0.5010461,-0.07839 0.892982,-0.203775 1.1875,-0.34375 0.390125,-0.184766 0.695877,-0.420136 0.90625,-0.71875 0.172109,-0.244488 0.249992,-0.537192 0.25,-0.875 C 10.781242,85.084288 10.683584,84.761289 10.5,84.5 10.316401,84.23685 10.039377,84.024788 9.6875,83.84375 9.3356096,83.66272 8.9308965,83.539675 8.4375,83.46875 8.0703115,83.416497 7.5436885,83.375004 6.84375,83.375 l -3.125,0 z m 11.75,0 0,4.125 6.40625,0 0,-0.6875 -4.6875,0 0,-1.125 4.21875,0 0,-0.6875 -4.21875,0 0,-0.90625 4.53125,0 0,-0.71875 -6.25,0 z m 21.34375,0 0,4.125 6.40625,0 0,-0.6875 -4.6875,0 0,-1.125 4.21875,0 0,-0.6875 -4.21875,0 0,-0.90625 4.53125,0 0,-0.71875 -6.25,0 z m 25.5,0 -3.28125,4.125 1.8125,0 0.6875,-0.9375 3.34375,0 0.75,0.9375 1.84375,0 -3.375,-4.125 -1.78125,0 z m 20.59375,0 0,4.125 1.6875,0 0,-4.125 -1.6875,0 z m 18.96875,0 0,4.125 1.59375,0 0,-2.6875 3.375,2.6875 1.71875,0 0,-4.125 -1.59375,0 0,2.75 -3.4375,-2.75 -1.65625,0 z m -75.25,0.03125 0,3.96875 -0.78125,0 -1.625,2.1875 1.59375,0 2.25,-2.0625 4.5,0 0,-0.6875 -4.21875,0 0,-3.40625 -1.71875,0 z m 66.59375,0.625 c 0.699938,3e-6 1.235513,0.112328 1.65625,0.34375 0.424549,0.231428 0.656243,0.592187 0.65625,1.0625 -7e-6,0.475916 -0.220227,0.823611 -0.65625,1.0625 -0.432211,0.237025 -0.979261,0.343751 -1.65625,0.34375 -0.676998,10e-7 -1.247648,-0.104859 -1.6875,-0.34375 -0.439857,-0.240756 -0.656252,-0.597782 -0.65625,-1.0625 -2e-6,-0.472179 0.227867,-0.829206 0.65625,-1.0625 0.428377,-0.235154 0.987553,-0.343747 1.6875,-0.34375 z m -87.78125,0.0625 0.75,0 c 0.6922895,3e-6 1.1691063,0.0051 1.40625,0.03125 0.3174555,0.0336 0.5747041,0.09232 0.78125,0.1875 0.2065349,0.09519 0.3539994,0.236417 0.46875,0.40625 0.1147387,0.169839 0.1874939,0.401476 0.1875,0.71875 -6.1e-6,0.317278 -0.072761,0.565235 -0.1875,0.75 -0.1147506,0.182902 -0.2539141,0.325999 -0.4375,0.40625 C 8.2264778,86.674 7.9941323,86.716407 7.71875,86.75 7.50838,86.77613 7.1617741,86.8125 6.6875,86.8125 l -1.25,0 0,-2.71875 z m 57.75,0.25 1.15625,1.53125 -2.28125,0 1.125,-1.53125 z m 22.5,6.1875 c -1.971896,1.3e-5 -3.530243,0.570259 -4.65625,1.71875 -1.120519,1.148513 -1.687501,2.75744 -1.6875,4.78125 -10e-7,2.018247 0.566981,3.6015 1.6875,4.75 1.126007,1.1485 2.684354,1.71875 4.65625,1.71875 1.977375,0 3.535722,-0.57025 4.65625,-1.71875 1.120504,-1.1485 1.656237,-2.731753 1.65625,-4.75 C 91.999987,95.00744 91.464254,93.398513 90.34375,92.25 89.223222,91.101509 87.664875,90.531263 85.6875,90.53125 z M 23.71875,90.75 l -4.53125,12.5 3.1875,0 0.78125,-2.28125 4.9375,0 0.78125,2.28125 3.1875,0 -4.5625,-12.5 -3.78125,0 z m 9.96875,0 0,12.5 8.75,0 0,-2.4375 -5.5625,0 0,-10.0625 -3.1875,0 z m 6.96875,0 4.5625,12.5 3.78125,0 4.5625,-12.5 -3.1875,0 -3.25,9.21875 -3.28125,-9.21875 -3.1875,0 z m 16.46875,0 -4.5625,12.5 3.1875,0 0.78125,-2.28125 4.96875,0 0.78125,2.28125 3.1875,0 -4.5625,-12.5 -3.78125,0 z m 9.96875,0 0,12.5 3.15625,0 0,-4.71875 0.90625,0 c 0.516311,5e-6 0.91115,0.115169 1.21875,0.34375 0.313079,0.22859 0.635392,0.656825 0.9375,1.28125 l 1.5,3.09375 3.375,0 -1.71875,-3.53125 c -0.351545,-0.719204 -0.716468,-1.273754 -1.0625,-1.625 -0.340559,-0.356811 -0.722333,-0.58714 -1.15625,-0.6875 0.790944,-0.25088 1.391256,-0.626594 1.78125,-1.15625 0.395466,-0.529642 0.593739,-1.206104 0.59375,-2.03125 -1.1e-5,-1.193095 -0.398264,-2.073039 -1.15625,-2.625 C 74.716236,91.041812 73.557848,90.750012 71.9375,90.75 l -4.84375,0 z m 18.59375,2.125 c 0.972205,1e-5 1.717196,0.368977 2.25,1.09375 0.532785,0.724792 0.81249,1.746747 0.8125,3.0625 -1e-5,1.31019 -0.279715,2.306471 -0.8125,3.03125 -0.532804,0.72479 -1.277795,1.09375 -2.25,1.09375 -0.966727,0 -1.71721,-0.36896 -2.25,-1.09375 -0.532799,-0.724779 -0.812504,-1.72106 -0.8125,-3.03125 -4e-6,-1.315753 0.279701,-2.337708 0.8125,-3.0625 0.53279,-0.724773 1.283273,-1.09374 2.25,-1.09375 z m -15.4375,0.21875 1.34375,0 c 0.664614,1e-5 1.120621,0.129699 1.40625,0.375 0.291107,0.245321 0.437492,0.650083 0.4375,1.21875 -8e-6,0.574259 -0.146393,0.999121 -0.4375,1.25 -0.285629,0.250894 -0.741636,0.375007 -1.40625,0.375 l -1.34375,0 0,-3.21875 z m -44.625,0.59375 1.6875,4.96875 -3.375,0 1.6875,-4.96875 z m 33.375,0 1.6875,4.96875 -3.375,0 L 59,93.6875 z m 22.90625,15.09375 -1.625,2.21875 1.59375,0 2.34375,-2.21875 -2.3125,0 z M 16.125,111.9375 c -1.971896,1e-5 -3.530243,0.57026 -4.65625,1.71875 -1.120519,1.14851 -1.6562508,2.75744 -1.65625,4.78125 -8e-7,2.01825 0.535731,3.6015 1.65625,4.75 1.126007,1.1485 2.684354,1.71875 4.65625,1.71875 1.977375,0 3.535722,-0.57025 4.65625,-1.71875 1.120504,-1.1485 1.687487,-2.73175 1.6875,-4.75 -1.3e-5,-2.02381 -0.566996,-3.63274 -1.6875,-4.78125 -1.120528,-1.14849 -2.678875,-1.71874 -4.65625,-1.71875 z m 52.21875,0 c -2.1202,1e-5 -3.780617,0.59593 -5,1.75 -1.219388,1.15409 -1.843751,2.73734 -1.84375,4.75 -10e-7,1.99037 0.615083,3.55352 1.8125,4.71875 1.197412,1.15965 2.826205,1.75 4.875,1.75 0.906292,0 1.773617,-0.11737 2.625,-0.3125 0.851363,-0.19513 1.677785,-0.48473 2.46875,-0.875 l 0,-6 -4.9375,0 0,2.15625 1.9375,0 0,2.4375 c -0.225211,0.0892 -0.495637,0.1429 -0.78125,0.1875 -0.280138,0.039 -0.576694,0.0625 -0.90625,0.0625 -1.213901,0 -2.153378,-0.34329 -2.8125,-1.0625 -0.659132,-0.7192 -1.000004,-1.74116 -1,-3.0625 -4e-6,-1.33248 0.350147,-2.38011 1.03125,-3.09375 0.686586,-0.7192 1.674165,-1.06249 2.9375,-1.0625 0.68109,1e-5 1.355634,0.0861 2.03125,0.28125 0.681088,0.19514 1.344647,0.51042 2.03125,0.90625 l 0,-2.59375 c -0.664632,-0.30663 -1.372506,-0.53138 -2.125,-0.6875 -0.747021,-0.15609 -1.525341,-0.24999 -2.34375,-0.25 z m 13.34375,0 c -1.971896,1e-5 -3.530243,0.57026 -4.65625,1.71875 -1.120519,1.14851 -1.687501,2.75744 -1.6875,4.78125 -10e-7,2.01825 0.566981,3.6015 1.6875,4.75 1.126007,1.1485 2.684354,1.71875 4.65625,1.71875 1.977375,0 3.504472,-0.57025 4.625,-1.71875 1.120504,-1.1485 1.687487,-2.73175 1.6875,-4.75 -1.3e-5,-2.02381 -0.566996,-3.63274 -1.6875,-4.78125 -1.120528,-1.14849 -2.647625,-1.71874 -4.625,-1.71875 z m -56.84375,0.25 0,12.46875 5.28125,0 c 1.636826,0 2.854301,-0.28402 3.65625,-0.875 0.801928,-0.59098 1.187488,-1.48324 1.1875,-2.6875 -1.2e-5,-0.78611 -0.189006,-1.4592 -0.5625,-2 -0.373517,-0.54079 -0.881411,-0.92428 -1.5625,-1.125 0.532785,-0.20628 0.93861,-0.51377 1.21875,-0.9375 0.280118,-0.42929 0.406239,-0.95479 0.40625,-1.5625 -1.1e-5,-1.15407 -0.387278,-1.97591 -1.15625,-2.5 -0.763499,-0.52406 -2.010518,-0.78124 -3.71875,-0.78125 l -4.75,0 z m 12.84375,0 0,12.46875 3.1875,0 0,-4.71875 0.90625,0 c 0.516311,0 0.91115,0.11517 1.21875,0.34375 0.313079,0.22859 0.635392,0.65683 0.9375,1.28125 l 1.5,3.09375 3.375,0 -1.71875,-3.53125 c -0.351545,-0.7192 -0.716468,-1.27375 -1.0625,-1.625 -0.340559,-0.35681 -0.722333,-0.58714 -1.15625,-0.6875 0.790944,-0.25088 1.391256,-0.62659 1.78125,-1.15625 0.395466,-0.52964 0.593739,-1.2061 0.59375,-2.03125 -1.1e-5,-1.19309 -0.398264,-2.07304 -1.15625,-2.625 -0.752514,-0.55194 -1.942152,-0.81249 -3.5625,-0.8125 l -4.84375,0 z m 13,0 0,12.46875 8.75,0 0,-2.4375 -5.59375,0 0,-2.84375 5.09375,0 0,-2.4375 -5.09375,0 0,-2.34375 5.40625,0 0,-2.40625 -8.5625,0 z m 39.71875,0 0,12.46875 3,0 0,-8.5625 4.46875,8.5625 3.53125,0 0,-12.46875 -3,0 0,8.5625 -4.46875,-8.5625 -3.53125,0 z M 16.125,114.28125 c 0.972205,1e-5 1.717196,0.36898 2.25,1.09375 0.532785,0.72479 0.81249,1.74675 0.8125,3.0625 -10e-6,1.31019 -0.279715,2.30647 -0.8125,3.03125 -0.532804,0.72479 -1.277795,1.09375 -2.25,1.09375 -0.966727,0 -1.71721,-0.36896 -2.25,-1.09375 -0.532799,-0.72478 -0.781254,-1.72106 -0.78125,-3.03125 -4e-6,-1.31575 0.248451,-2.33771 0.78125,-3.0625 0.53279,-0.72477 1.283273,-1.09374 2.25,-1.09375 z m 65.5625,0 c 0.972205,1e-5 1.717196,0.36898 2.25,1.09375 0.532785,0.72479 0.81249,1.74675 0.8125,3.0625 -1e-5,1.31019 -0.279715,2.30647 -0.8125,3.03125 -0.532804,0.72479 -1.277795,1.09375 -2.25,1.09375 -0.966727,0 -1.71721,-0.36896 -2.25,-1.09375 -0.532799,-0.72478 -0.812504,-1.72106 -0.8125,-3.03125 -4e-6,-1.31575 0.279701,-2.33771 0.8125,-3.0625 0.53279,-0.72477 1.283273,-1.09374 2.25,-1.09375 z m -53.65625,0.0937 1.75,0 c 0.499832,1e-5 0.866834,0.11517 1.125,0.34375 0.258151,0.22302 0.374992,0.53946 0.375,0.96875 -8e-6,0.43488 -0.116849,0.74575 -0.375,0.96875 -0.258166,0.22302 -0.625168,0.34376 -1.125,0.34375 l -1.75,0 0,-2.625 z m 12.84375,0.125 1.34375,0 c 0.664614,1e-5 1.120621,0.1297 1.40625,0.375 0.291107,0.24532 0.437492,0.65008 0.4375,1.21875 -8e-6,0.57426 -0.146393,0.99912 -0.4375,1.25 -0.285629,0.25089 -0.741636,0.37501 -1.40625,0.375 l -1.34375,0 0,-3.21875 z m -12.84375,4.6875 1.84375,0 c 0.642642,1e-5 1.118914,0.13307 1.4375,0.40625 0.31857,0.26762 0.499991,0.67795 0.5,1.21875 -9e-6,0.55195 -0.175937,0.97682 -0.5,1.25 -0.318586,0.27319 -0.80035,0.40625 -1.4375,0.40625 l -1.84375,0 0,-3.28125 z"
       transform="translate(51.202745,241.14719)"
       id="text3318" />
    <rect
       style="fill:#fffaf0;fill-opacity:1;stroke:#000000;stroke-width:0.58110303;stroke-miterlimit:4;stroke-opacity:1;stroke-dasharray:none"
       id="rect3628"
       width="44.73856"
       height="4.4587202"
       x="84.581261"
       y="301.6926" />
  </g>
</svg>
